<svg xmlns="http://www.w3.org/2000/svg" xmlns:xlink="http://www.w3.org/1999/xlink" width="1080" zoomAndPan="magnify" viewBox="0 0 810 809.999993" height="1080" preserveAspectRatio="xMidYMid meet" version="1.0"><defs><clipPath id="id1"><path d="M 38.929688 38.929688 L 776.179688 38.929688 L 776.179688 776.179688 L 38.929688 776.179688 Z M 38.929688 38.929688 " clip-rule="nonzero"/></clipPath></defs><g clip-path="url(#id1)"><path fill="rgb(26.269531%, 56.858826%, 60.778809%)" d="M 776.179688 407.554688 C 776.179688 413.585938 776.03125 419.613281 775.734375 425.640625 C 775.4375 431.667969 774.996094 437.679688 774.402344 443.683594 C 773.8125 449.6875 773.074219 455.675781 772.1875 461.640625 C 771.304688 467.609375 770.273438 473.550781 769.09375 479.46875 C 767.917969 485.386719 766.597656 491.269531 765.128906 497.121094 C 763.664062 502.972656 762.054688 508.785156 760.304688 514.558594 C 758.554688 520.332031 756.664062 526.058594 754.628906 531.738281 C 752.597656 537.417969 750.425781 543.046875 748.117188 548.621094 C 745.808594 554.191406 743.367188 559.707031 740.785156 565.160156 C 738.207031 570.613281 735.496094 576 732.652344 581.320312 C 729.808594 586.640625 726.835938 591.890625 723.734375 597.0625 C 720.632812 602.238281 717.40625 607.332031 714.054688 612.351562 C 710.703125 617.367188 707.230469 622.296875 703.636719 627.144531 C 700.042969 631.988281 696.332031 636.742188 692.503906 641.40625 C 688.675781 646.070312 684.738281 650.636719 680.6875 655.105469 C 676.632812 659.578125 672.476562 663.945312 668.210938 668.210938 C 663.945312 672.476562 659.578125 676.632812 655.105469 680.6875 C 650.636719 684.738281 646.070312 688.675781 641.40625 692.503906 C 636.742188 696.332031 631.988281 700.042969 627.140625 703.636719 C 622.296875 707.230469 617.367188 710.703125 612.351562 714.054688 C 607.332031 717.40625 602.238281 720.632812 597.0625 723.734375 C 591.890625 726.835938 586.640625 729.808594 581.320312 732.652344 C 576 735.496094 570.613281 738.207031 565.160156 740.785156 C 559.707031 743.367188 554.191406 745.808594 548.621094 748.117188 C 543.046875 750.425781 537.417969 752.597656 531.738281 754.628906 C 526.058594 756.664062 520.332031 758.554688 514.558594 760.304688 C 508.785156 762.054688 502.972656 763.664062 497.121094 765.128906 C 491.269531 766.597656 485.386719 767.917969 479.46875 769.09375 C 473.550781 770.273438 467.609375 771.304688 461.640625 772.1875 C 455.675781 773.074219 449.6875 773.8125 443.683594 774.402344 C 437.679688 774.996094 431.667969 775.4375 425.640625 775.734375 C 419.613281 776.03125 413.585938 776.179688 407.554688 776.179688 C 401.519531 776.179688 395.492188 776.03125 389.464844 775.734375 C 383.441406 775.4375 377.425781 774.996094 371.421875 774.402344 C 365.417969 773.8125 359.433594 773.074219 353.464844 772.1875 C 347.496094 771.304688 341.554688 770.273438 335.636719 769.09375 C 329.722656 767.917969 323.835938 766.597656 317.984375 765.128906 C 312.132812 763.664062 306.320312 762.054688 300.546875 760.304688 C 294.773438 758.554688 289.046875 756.664062 283.367188 754.628906 C 277.6875 752.597656 272.058594 750.425781 266.488281 748.117188 C 260.914062 745.808594 255.398438 743.367188 249.945312 740.785156 C 244.492188 738.207031 239.105469 735.496094 233.785156 732.652344 C 228.464844 729.808594 223.214844 726.835938 218.042969 723.734375 C 212.867188 720.632812 207.773438 717.40625 202.757812 714.054688 C 197.738281 710.703125 192.808594 707.230469 187.964844 703.636719 C 183.117188 700.042969 178.363281 696.332031 173.699219 692.503906 C 169.035156 688.675781 164.46875 684.738281 160 680.6875 C 155.53125 676.632812 151.160156 672.476562 146.894531 668.210938 C 142.628906 663.945312 138.472656 659.578125 134.421875 655.105469 C 130.367188 650.636719 126.429688 646.070312 122.601562 641.40625 C 118.773438 636.742188 115.0625 631.988281 111.46875 627.140625 C 107.875 622.296875 104.402344 617.367188 101.050781 612.351562 C 97.699219 607.332031 94.472656 602.238281 91.371094 597.0625 C 88.269531 591.890625 85.296875 586.640625 82.453125 581.320312 C 79.609375 576 76.898438 570.613281 74.320312 565.160156 C 71.742188 559.707031 69.296875 554.191406 66.988281 548.621094 C 64.679688 543.046875 62.507812 537.417969 60.476562 531.738281 C 58.445312 526.058594 56.550781 520.332031 54.800781 514.558594 C 53.050781 508.785156 51.441406 502.972656 49.976562 497.121094 C 48.507812 491.269531 47.1875 485.386719 46.011719 479.46875 C 44.835938 473.550781 43.804688 467.609375 42.917969 461.640625 C 42.03125 455.675781 41.292969 449.6875 40.703125 443.683594 C 40.113281 437.679688 39.667969 431.667969 39.371094 425.640625 C 39.074219 419.613281 38.929688 413.585938 38.929688 407.554688 C 38.929688 401.519531 39.074219 395.492188 39.371094 389.464844 C 39.667969 383.441406 40.113281 377.425781 40.703125 371.421875 C 41.292969 365.417969 42.03125 359.433594 42.917969 353.464844 C 43.804688 347.496094 44.835938 341.554688 46.011719 335.636719 C 47.1875 329.722656 48.507812 323.835938 49.976562 317.984375 C 51.441406 312.132812 53.050781 306.320312 54.800781 300.546875 C 56.550781 294.773438 58.445312 289.046875 60.476562 283.367188 C 62.507812 277.6875 64.679688 272.058594 66.988281 266.488281 C 69.296875 260.914062 71.742188 255.398438 74.320312 249.945312 C 76.898438 244.492188 79.609375 239.105469 82.453125 233.785156 C 85.296875 228.464844 88.269531 223.214844 91.371094 218.042969 C 94.472656 212.867188 97.699219 207.773438 101.050781 202.757812 C 104.402344 197.738281 107.875 192.808594 111.46875 187.964844 C 115.0625 183.117188 118.773438 178.363281 122.601562 173.699219 C 126.429688 169.035156 130.367188 164.46875 134.421875 160 C 138.472656 155.53125 142.628906 151.160156 146.894531 146.894531 C 151.160156 142.628906 155.53125 138.472656 160 134.421875 C 164.46875 130.367188 169.035156 126.429688 173.699219 122.601562 C 178.363281 118.773438 183.117188 115.066406 187.964844 111.472656 C 192.808594 107.878906 197.738281 104.402344 202.757812 101.050781 C 207.773438 97.699219 212.867188 94.472656 218.042969 91.371094 C 223.214844 88.269531 228.464844 85.296875 233.785156 82.453125 C 239.105469 79.609375 244.492188 76.898438 249.945312 74.320312 C 255.398438 71.742188 260.914062 69.296875 266.488281 66.988281 C 272.058594 64.679688 277.6875 62.507812 283.367188 60.476562 C 289.046875 58.445312 294.773438 56.550781 300.546875 54.800781 C 306.320312 53.050781 312.132812 51.441406 317.984375 49.976562 C 323.835938 48.507812 329.722656 47.1875 335.636719 46.011719 C 341.554688 44.835938 347.496094 43.804688 353.464844 42.917969 C 359.433594 42.03125 365.417969 41.292969 371.421875 40.703125 C 377.425781 40.113281 383.441406 39.667969 389.464844 39.371094 C 395.492188 39.074219 401.519531 38.929688 407.554688 38.929688 C 413.585938 38.929688 419.613281 39.074219 425.640625 39.371094 C 431.667969 39.667969 437.679688 40.113281 443.683594 40.703125 C 449.6875 41.292969 455.675781 42.03125 461.640625 42.917969 C 467.609375 43.804688 473.550781 44.835938 479.46875 46.011719 C 485.386719 47.1875 491.269531 48.507812 497.121094 49.976562 C 502.972656 51.441406 508.785156 53.050781 514.558594 54.800781 C 520.332031 56.550781 526.058594 58.445312 531.738281 60.476562 C 537.417969 62.507812 543.046875 64.679688 548.621094 66.988281 C 554.191406 69.296875 559.707031 71.742188 565.160156 74.320312 C 570.613281 76.898438 576 79.609375 581.320312 82.453125 C 586.640625 85.296875 591.890625 88.269531 597.0625 91.371094 C 602.238281 94.472656 607.332031 97.699219 612.351562 101.050781 C 617.367188 104.402344 622.296875 107.878906 627.144531 111.472656 C 631.988281 115.066406 636.742188 118.773438 641.40625 122.601562 C 646.070312 126.429688 650.636719 130.367188 655.105469 134.421875 C 659.578125 138.472656 663.945312 142.628906 668.210938 146.894531 C 672.476562 151.160156 676.632812 155.53125 680.6875 160 C 684.738281 164.46875 688.675781 169.035156 692.503906 173.699219 C 696.332031 178.363281 700.042969 183.117188 703.636719 187.964844 C 707.230469 192.808594 710.703125 197.738281 714.054688 202.757812 C 717.40625 207.773438 720.632812 212.867188 723.734375 218.042969 C 726.835938 223.214844 729.808594 228.464844 732.652344 233.785156 C 735.496094 239.105469 738.207031 244.492188 740.785156 249.945312 C 743.367188 255.398438 745.808594 260.914062 748.117188 266.488281 C 750.425781 272.058594 752.597656 277.6875 754.628906 283.367188 C 756.660156 289.046875 758.554688 294.773438 760.304688 300.546875 C 762.054688 306.320312 763.664062 312.132812 765.128906 317.984375 C 766.597656 323.835938 767.917969 329.722656 769.09375 335.636719 C 770.273438 341.554688 771.304688 347.496094 772.1875 353.464844 C 773.074219 359.433594 773.8125 365.417969 774.402344 371.421875 C 774.996094 377.425781 775.4375 383.441406 775.734375 389.464844 C 776.03125 395.492188 776.179688 401.519531 776.179688 407.554688 Z M 776.179688 407.554688 " fill-opacity="1" fill-rule="nonzero"/></g><path fill="rgb(0%, 100%, 78.42865%)" d="M 748.164062 407.554688 C 748.164062 413.128906 748.027344 418.699219 747.753906 424.265625 C 747.480469 429.832031 747.070312 435.390625 746.523438 440.9375 C 745.976562 446.484375 745.292969 452.015625 744.476562 457.53125 C 743.65625 463.042969 742.707031 468.535156 741.617188 474.003906 C 740.53125 479.46875 739.308594 484.90625 737.953125 490.3125 C 736.601562 495.722656 735.113281 501.09375 733.496094 506.425781 C 731.878906 511.761719 730.128906 517.050781 728.25 522.300781 C 726.375 527.550781 724.367188 532.75 722.234375 537.898438 C 720.101562 543.046875 717.84375 548.144531 715.460938 553.183594 C 713.078125 558.222656 710.570312 563.199219 707.945312 568.117188 C 705.316406 573.03125 702.570312 577.878906 699.703125 582.660156 C 696.835938 587.441406 693.855469 592.152344 690.757812 596.785156 C 687.664062 601.421875 684.453125 605.976562 681.132812 610.453125 C 677.8125 614.929688 674.382812 619.324219 670.847656 623.632812 C 667.3125 627.941406 663.671875 632.160156 659.929688 636.292969 C 656.183594 640.421875 652.34375 644.457031 648.398438 648.398438 C 644.457031 652.34375 640.421875 656.183594 636.292969 659.929688 C 632.160156 663.671875 627.941406 667.3125 623.632812 670.847656 C 619.324219 674.382812 614.929688 677.8125 610.453125 681.132812 C 605.976562 684.453125 601.421875 687.664062 596.785156 690.757812 C 592.152344 693.855469 587.441406 696.835938 582.660156 699.703125 C 577.878906 702.570312 573.03125 705.316406 568.113281 707.945312 C 563.199219 710.570312 558.222656 713.078125 553.183594 715.460938 C 548.144531 717.84375 543.046875 720.101562 537.898438 722.234375 C 532.75 724.367188 527.550781 726.375 522.300781 728.25 C 517.050781 730.128906 511.761719 731.878906 506.425781 733.496094 C 501.09375 735.113281 495.722656 736.601562 490.3125 737.953125 C 484.90625 739.308594 479.46875 740.53125 474.003906 741.617188 C 468.535156 742.707031 463.042969 743.65625 457.53125 744.476562 C 452.015625 745.292969 446.484375 745.976562 440.9375 746.523438 C 435.390625 747.070312 429.832031 747.480469 424.265625 747.753906 C 418.699219 748.027344 413.128906 748.164062 407.554688 748.164062 C 401.980469 748.164062 396.40625 748.027344 390.839844 747.753906 C 385.273438 747.480469 379.714844 747.070312 374.167969 746.523438 C 368.621094 745.976562 363.089844 745.292969 357.574219 744.476562 C 352.0625 743.65625 346.570312 742.707031 341.101562 741.617188 C 335.636719 740.53125 330.199219 739.308594 324.792969 737.953125 C 319.382812 736.601562 314.011719 735.113281 308.679688 733.496094 C 303.34375 731.878906 298.054688 730.128906 292.804688 728.25 C 287.558594 726.375 282.359375 724.367188 277.207031 722.234375 C 272.058594 720.101562 266.960938 717.84375 261.921875 715.460938 C 256.882812 713.078125 251.90625 710.570312 246.992188 707.945312 C 242.074219 705.316406 237.226562 702.570312 232.445312 699.703125 C 227.664062 696.835938 222.957031 693.855469 218.320312 690.757812 C 213.6875 687.664062 209.128906 684.453125 204.652344 681.132812 C 200.175781 677.8125 195.78125 674.382812 191.472656 670.847656 C 187.164062 667.3125 182.945312 663.671875 178.8125 659.929688 C 174.683594 656.183594 170.648438 652.34375 166.707031 648.398438 C 162.765625 644.457031 158.921875 640.421875 155.179688 636.292969 C 151.433594 632.160156 147.792969 627.941406 144.257812 623.632812 C 140.722656 619.324219 137.292969 614.929688 133.972656 610.453125 C 130.652344 605.976562 127.445312 601.421875 124.347656 596.785156 C 121.25 592.152344 118.269531 587.441406 115.402344 582.660156 C 112.535156 577.878906 109.789062 573.03125 107.164062 568.117188 C 104.535156 563.199219 102.027344 558.222656 99.644531 553.183594 C 97.261719 548.144531 95.003906 543.046875 92.871094 537.898438 C 90.738281 532.75 88.730469 527.550781 86.855469 522.300781 C 84.976562 517.050781 83.226562 511.761719 81.609375 506.425781 C 79.992188 501.09375 78.503906 495.722656 77.152344 490.3125 C 75.796875 484.90625 74.574219 479.46875 73.488281 474.003906 C 72.402344 468.535156 71.449219 463.042969 70.628906 457.53125 C 69.8125 452.015625 69.128906 446.484375 68.582031 440.9375 C 68.039062 435.390625 67.628906 429.832031 67.355469 424.265625 C 67.082031 418.699219 66.945312 413.128906 66.945312 407.554688 C 66.945312 401.980469 67.082031 396.40625 67.355469 390.839844 C 67.628906 385.273438 68.039062 379.714844 68.582031 374.167969 C 69.128906 368.621094 69.8125 363.089844 70.628906 357.574219 C 71.449219 352.0625 72.402344 346.570312 73.488281 341.101562 C 74.574219 335.636719 75.796875 330.199219 77.152344 324.792969 C 78.503906 319.382812 79.992188 314.011719 81.609375 308.679688 C 83.226562 303.34375 84.976562 298.054688 86.855469 292.804688 C 88.730469 287.558594 90.738281 282.359375 92.871094 277.207031 C 95.003906 272.058594 97.261719 266.960938 99.644531 261.921875 C 102.027344 256.882812 104.535156 251.90625 107.164062 246.992188 C 109.789062 242.074219 112.535156 237.226562 115.402344 232.445312 C 118.269531 227.664062 121.25 222.957031 124.347656 218.320312 C 127.445312 213.6875 130.652344 209.128906 133.972656 204.652344 C 137.292969 200.175781 140.722656 195.78125 144.257812 191.472656 C 147.792969 187.164062 151.433594 182.945312 155.179688 178.8125 C 158.921875 174.683594 162.765625 170.648438 166.707031 166.707031 C 170.648438 162.765625 174.683594 158.921875 178.8125 155.179688 C 182.945312 151.433594 187.164062 147.792969 191.472656 144.257812 C 195.78125 140.722656 200.175781 137.292969 204.652344 133.972656 C 209.128906 130.652344 213.6875 127.445312 218.320312 124.347656 C 222.957031 121.25 227.664062 118.269531 232.445312 115.402344 C 237.226562 112.535156 242.074219 109.789062 246.992188 107.164062 C 251.90625 104.535156 256.882812 102.027344 261.921875 99.644531 C 266.960938 97.261719 272.058594 95.003906 277.207031 92.871094 C 282.359375 90.738281 287.558594 88.730469 292.804688 86.855469 C 298.054688 84.976562 303.34375 83.226562 308.679688 81.609375 C 314.011719 79.992188 319.382812 78.503906 324.792969 77.152344 C 330.199219 75.796875 335.636719 74.574219 341.101562 73.488281 C 346.570312 72.402344 352.0625 71.449219 357.574219 70.628906 C 363.089844 69.8125 368.621094 69.128906 374.167969 68.582031 C 379.714844 68.039062 385.273438 67.628906 390.839844 67.355469 C 396.40625 67.082031 401.980469 66.945312 407.554688 66.945312 C 413.128906 66.945312 418.699219 67.082031 424.265625 67.355469 C 429.832031 67.628906 435.390625 68.039062 440.9375 68.582031 C 446.484375 69.128906 452.015625 69.8125 457.53125 70.628906 C 463.042969 71.449219 468.535156 72.402344 474.003906 73.488281 C 479.46875 74.574219 484.90625 75.796875 490.3125 77.152344 C 495.722656 78.503906 501.09375 79.992188 506.425781 81.609375 C 511.761719 83.226562 517.050781 84.976562 522.300781 86.855469 C 527.550781 88.730469 532.75 90.738281 537.898438 92.871094 C 543.046875 95.003906 548.144531 97.261719 553.183594 99.644531 C 558.222656 102.027344 563.199219 104.535156 568.113281 107.164062 C 573.03125 109.789062 577.878906 112.535156 582.660156 115.402344 C 587.441406 118.269531 592.152344 121.25 596.785156 124.347656 C 601.421875 127.445312 605.976562 130.652344 610.453125 133.972656 C 614.929688 137.292969 619.324219 140.722656 623.632812 144.257812 C 627.941406 147.792969 632.160156 151.433594 636.292969 155.179688 C 640.421875 158.921875 644.457031 162.765625 648.398438 166.707031 C 652.34375 170.648438 656.183594 174.683594 659.929688 178.8125 C 663.671875 182.945312 667.3125 187.164062 670.847656 191.472656 C 674.382812 195.78125 677.8125 200.175781 681.132812 204.652344 C 684.453125 209.128906 687.664062 213.6875 690.757812 218.320312 C 693.855469 222.957031 696.835938 227.664062 699.703125 232.445312 C 702.570312 237.226562 705.316406 242.074219 707.945312 246.992188 C 710.570312 251.90625 713.078125 256.882812 715.460938 261.921875 C 717.84375 266.960938 720.101562 272.058594 722.234375 277.207031 C 724.367188 282.359375 726.375 287.558594 728.25 292.804688 C 730.128906 298.054688 731.878906 303.34375 733.496094 308.679688 C 735.113281 314.011719 736.601562 319.382812 737.953125 324.792969 C 739.308594 330.199219 740.53125 335.636719 741.617188 341.101562 C 742.707031 346.570312 743.65625 352.0625 744.476562 357.574219 C 745.292969 363.089844 745.976562 368.621094 746.523438 374.167969 C 747.070312 379.714844 747.480469 385.273438 747.753906 390.839844 C 748.027344 396.40625 748.164062 401.980469 748.164062 407.554688 Z M 748.164062 407.554688 " fill-opacity="1" fill-rule="nonzero"/><path fill="rgb(26.269531%, 56.858826%, 60.778809%)" d="M 240.933594 197.929688 L 574.171875 197.929688 C 581.050781 197.929688 587.195312 200.632812 591.867188 205.300781 C 596.289062 209.722656 599.238281 216.113281 599.238281 222.996094 L 599.238281 504.871094 C 599.238281 511.75 596.289062 518.140625 591.867188 522.5625 C 587.195312 527.234375 581.050781 529.9375 574.171875 529.9375 L 240.933594 529.9375 C 234.054688 529.9375 227.910156 527.234375 223.242188 522.5625 C 218.816406 518.140625 215.867188 511.75 215.867188 504.871094 L 215.867188 222.996094 C 215.867188 216.113281 218.816406 209.722656 223.242188 205.300781 C 227.910156 200.632812 234.054688 197.929688 240.933594 197.929688 Z M 574.171875 214.148438 L 240.933594 214.148438 C 238.722656 214.148438 236.511719 215.128906 234.789062 216.851562 C 233.316406 218.324219 232.332031 220.539062 232.332031 222.996094 L 232.332031 504.871094 C 232.332031 507.328125 233.316406 509.292969 234.789062 511.015625 C 236.511719 512.488281 238.722656 513.472656 240.933594 513.472656 L 574.171875 513.472656 C 576.382812 513.472656 578.59375 512.488281 580.316406 511.015625 C 581.789062 509.292969 582.773438 507.328125 582.773438 504.871094 L 582.773438 222.996094 C 582.773438 220.539062 581.789062 218.324219 580.316406 216.851562 C 578.59375 215.128906 576.382812 214.148438 574.171875 214.148438 Z M 574.171875 214.148438 " fill-opacity="1" fill-rule="nonzero"/><path fill="rgb(26.269531%, 56.858826%, 60.778809%)" d="M 305.566406 386.171875 C 299.421875 386.171875 294.015625 383.714844 289.839844 379.785156 C 289.59375 379.539062 289.59375 379.292969 289.347656 379.046875 C 285.660156 375.113281 283.449219 369.707031 283.449219 363.808594 C 283.449219 357.664062 285.90625 352.257812 289.839844 348.082031 L 290.085938 348.082031 C 294.015625 344.148438 299.667969 341.691406 305.566406 341.691406 C 311.710938 341.691406 317.363281 344.148438 321.539062 348.082031 C 321.539062 348.328125 321.785156 348.574219 322.03125 348.820312 C 325.71875 352.75 327.929688 358.15625 327.929688 363.808594 C 327.929688 369.953125 325.472656 375.605469 321.539062 379.785156 C 317.363281 383.714844 311.710938 386.171875 305.566406 386.171875 Z M 301.390625 367.988281 C 302.617188 369.214844 304.09375 369.707031 305.566406 369.707031 C 307.285156 369.707031 308.761719 369.214844 309.746094 367.988281 C 310.972656 367.003906 311.464844 365.53125 311.464844 363.808594 C 311.464844 362.335938 310.972656 361.105469 310.234375 359.878906 C 309.992188 359.878906 309.992188 359.878906 309.746094 359.632812 C 308.761719 358.648438 307.285156 357.910156 305.566406 357.910156 C 304.09375 357.910156 302.617188 358.648438 301.636719 359.632812 L 301.390625 359.632812 L 295.738281 353.980469 L 301.390625 359.632812 C 300.40625 360.859375 299.667969 362.335938 299.667969 363.808594 C 299.667969 365.53125 300.40625 366.757812 301.144531 367.742188 C 301.390625 367.988281 301.390625 367.988281 301.390625 367.988281 Z M 301.390625 367.988281 " fill-opacity="1" fill-rule="nonzero"/><path fill="rgb(26.269531%, 56.858826%, 60.778809%)" d="M 410.746094 386.171875 C 404.605469 386.171875 399.199219 383.714844 395.019531 379.785156 C 394.773438 379.539062 394.773438 379.292969 394.527344 379.046875 C 390.84375 375.113281 388.628906 369.707031 388.628906 363.808594 C 388.628906 357.664062 391.085938 352.257812 395.019531 348.082031 L 395.265625 348.082031 C 399.199219 344.148438 404.851562 341.691406 410.746094 341.691406 C 416.890625 341.691406 422.542969 344.148438 426.476562 348.082031 C 426.722656 348.328125 426.96875 348.574219 427.214844 348.820312 C 430.898438 352.75 433.109375 358.15625 433.109375 363.808594 C 433.109375 369.953125 430.652344 375.605469 426.476562 379.539062 L 426.476562 379.785156 C 426.476562 379.785156 426.230469 380.027344 425.984375 380.273438 C 422.050781 383.960938 416.644531 386.171875 410.746094 386.171875 Z M 406.570312 367.988281 C 407.796875 369.214844 409.273438 369.707031 410.746094 369.707031 C 412.222656 369.707031 413.695312 369.214844 414.679688 368.480469 C 414.925781 368.234375 414.925781 368.234375 414.925781 367.988281 L 420.824219 373.886719 L 414.925781 367.988281 C 416.15625 367.003906 416.644531 365.53125 416.644531 363.808594 C 416.644531 362.335938 416.15625 361.105469 415.417969 359.878906 C 415.171875 359.878906 415.171875 359.878906 414.925781 359.632812 L 420.824219 353.980469 L 414.925781 359.632812 C 413.941406 358.648438 412.46875 357.910156 410.746094 357.910156 C 409.273438 357.910156 407.796875 358.648438 406.570312 359.632812 L 400.917969 353.980469 L 406.570312 359.632812 C 405.585938 360.859375 404.851562 362.335938 404.851562 363.808594 C 404.851562 365.53125 405.339844 366.757812 406.324219 367.742188 C 406.324219 367.988281 406.570312 367.988281 406.570312 367.988281 Z M 406.570312 367.988281 " fill-opacity="1" fill-rule="nonzero"/><path fill="rgb(26.269531%, 56.858826%, 60.778809%)" d="M 515.929688 386.171875 C 509.785156 386.171875 504.132812 383.714844 500.199219 379.785156 C 496.269531 375.605469 493.566406 369.953125 493.566406 363.808594 C 493.566406 357.664062 496.269531 352.257812 500.199219 348.082031 L 500.445312 348.082031 C 504.378906 344.148438 509.785156 341.691406 515.929688 341.691406 C 522.074219 341.691406 527.726562 344.148438 531.65625 348.082031 C 531.902344 348.328125 532.148438 348.574219 532.394531 348.820312 C 536.082031 352.75 538.292969 358.15625 538.292969 363.808594 C 538.292969 369.953125 535.835938 375.605469 531.65625 379.785156 C 531.65625 379.785156 531.410156 380.027344 531.164062 380.273438 C 527.234375 383.960938 521.828125 386.171875 515.929688 386.171875 Z M 511.75 367.988281 C 512.734375 369.214844 514.453125 369.707031 515.929688 369.707031 C 517.402344 369.707031 518.878906 369.214844 519.859375 368.480469 C 519.859375 368.234375 520.105469 368.234375 520.105469 367.988281 C 521.335938 367.003906 521.828125 365.53125 521.828125 363.808594 C 521.828125 362.335938 521.335938 361.105469 520.351562 359.878906 C 520.351562 359.878906 520.351562 359.878906 520.105469 359.632812 L 526.003906 353.980469 L 520.105469 359.632812 C 519.125 358.648438 517.648438 357.910156 515.929688 357.910156 C 514.453125 357.910156 512.980469 358.648438 511.75 359.632812 L 506.097656 353.980469 L 511.75 359.632812 C 510.769531 360.859375 510.03125 362.335938 510.03125 363.808594 C 510.03125 365.53125 510.769531 367.003906 511.75 367.988281 Z M 511.75 367.988281 " fill-opacity="1" fill-rule="nonzero"/><path fill="rgb(26.269531%, 56.858826%, 60.778809%)" d="M 325.964844 515.929688 C 322.769531 512.734375 317.609375 512.734375 314.414062 515.929688 C 311.21875 519.125 311.21875 524.285156 314.414062 527.480469 L 401.65625 614.964844 C 404.851562 618.160156 410.257812 618.160156 413.449219 614.964844 L 413.449219 614.71875 L 500.691406 527.480469 C 503.886719 524.285156 503.886719 519.125 500.691406 515.929688 C 497.496094 512.734375 492.335938 512.734375 489.140625 515.929688 L 407.554688 597.519531 Z M 325.964844 515.929688 " fill-opacity="1" fill-rule="nonzero"/><path fill="rgb(26.269531%, 56.858826%, 60.778809%)" d="M 529.691406 473.167969 C 523.546875 473.167969 517.894531 470.710938 513.960938 466.777344 C 513.71875 466.53125 513.472656 466.289062 513.226562 466.042969 C 509.539062 462.109375 507.328125 456.703125 507.328125 451.050781 C 507.328125 444.90625 509.785156 439.253906 513.960938 435.078125 C 517.894531 431.144531 523.546875 428.6875 529.691406 428.6875 C 535.835938 428.6875 541.242188 431.144531 545.417969 435.078125 C 545.664062 435.324219 545.664062 435.570312 545.910156 435.8125 C 549.597656 439.746094 551.808594 445.152344 551.808594 451.050781 C 551.808594 457.195312 549.351562 462.601562 545.417969 466.777344 L 545.171875 466.777344 C 541.242188 470.957031 535.589844 473.167969 529.691406 473.167969 Z M 525.511719 455.230469 C 526.496094 456.210938 527.96875 456.949219 529.691406 456.949219 C 531.164062 456.949219 532.640625 456.210938 533.867188 455.230469 L 539.519531 460.878906 L 533.867188 455.230469 C 534.851562 454 535.589844 452.523438 535.589844 451.050781 C 535.589844 449.578125 535.097656 448.101562 534.113281 447.117188 C 534.113281 446.875 533.867188 446.875 533.867188 446.875 C 532.640625 445.644531 531.164062 445.152344 529.691406 445.152344 C 527.96875 445.152344 526.496094 445.644531 525.511719 446.875 C 524.285156 447.855469 523.792969 449.332031 523.792969 451.050781 C 523.792969 452.523438 524.285156 453.753906 525.023438 454.984375 C 525.265625 454.984375 525.265625 454.984375 525.511719 455.230469 Z M 525.511719 455.230469 " fill-opacity="1" fill-rule="nonzero"/><path fill="rgb(26.269531%, 56.858826%, 60.778809%)" d="M 455.71875 473.167969 C 449.578125 473.167969 444.167969 470.710938 439.992188 466.777344 C 439.746094 466.53125 439.746094 466.289062 439.5 466.042969 C 435.8125 462.109375 433.601562 456.703125 433.601562 451.050781 C 433.601562 444.90625 436.058594 439.253906 439.992188 435.078125 C 444.167969 431.144531 449.578125 428.6875 455.71875 428.6875 C 461.863281 428.6875 467.515625 431.144531 471.449219 435.078125 C 471.695312 435.324219 471.941406 435.570312 472.183594 435.8125 C 475.871094 439.746094 478.082031 445.152344 478.082031 451.050781 C 478.082031 457.195312 475.625 462.601562 471.449219 466.777344 C 467.269531 470.957031 461.863281 473.167969 455.71875 473.167969 Z M 451.542969 455.230469 C 452.769531 456.210938 454.246094 456.949219 455.71875 456.949219 C 457.441406 456.949219 458.914062 456.210938 459.898438 455.230469 L 465.796875 460.878906 L 459.898438 455.230469 C 461.125 454 461.617188 452.523438 461.617188 451.050781 C 461.617188 449.578125 461.125 448.101562 460.390625 447.117188 C 460.144531 446.875 460.144531 446.875 459.898438 446.875 C 458.914062 445.644531 457.441406 445.152344 455.71875 445.152344 C 454.246094 445.152344 452.769531 445.644531 451.542969 446.875 C 450.558594 447.855469 449.820312 449.332031 449.820312 451.050781 C 449.820312 452.523438 450.3125 453.753906 451.296875 454.984375 C 451.296875 454.984375 451.542969 454.984375 451.542969 455.230469 Z M 451.542969 455.230469 " fill-opacity="1" fill-rule="nonzero"/><path fill="rgb(26.269531%, 56.858826%, 60.778809%)" d="M 396.003906 459.160156 C 400.671875 459.160156 404.359375 455.472656 404.359375 451.050781 C 404.359375 446.382812 400.671875 442.695312 396.003906 442.695312 L 277.796875 442.695312 C 273.375 442.695312 269.6875 446.382812 269.6875 451.050781 C 269.6875 455.472656 273.375 459.160156 277.796875 459.160156 Z M 396.003906 459.160156 " fill-opacity="1" fill-rule="nonzero"/><path fill="rgb(26.269531%, 56.858826%, 60.778809%)" d="M 292.050781 254.449219 C 298.195312 254.449219 303.847656 256.910156 307.777344 261.085938 C 308.023438 261.332031 308.269531 261.332031 308.269531 261.578125 C 311.957031 265.753906 314.414062 270.917969 314.414062 276.8125 C 314.414062 282.957031 311.710938 288.609375 307.777344 292.542969 C 303.847656 296.71875 298.195312 299.175781 292.050781 299.175781 C 285.90625 299.175781 280.253906 296.71875 276.324219 292.542969 C 276.078125 292.296875 275.832031 292.296875 275.832031 292.050781 C 271.898438 288.117188 269.6875 282.710938 269.6875 276.8125 C 269.6875 270.671875 272.144531 265.019531 276.324219 261.085938 L 276.324219 260.839844 C 280.5 256.910156 285.90625 254.449219 292.050781 254.449219 Z M 296.226562 272.636719 C 295.246094 271.652344 293.769531 270.917969 292.050781 270.917969 C 290.332031 270.917969 288.855469 271.652344 287.871094 272.636719 L 281.976562 266.738281 L 287.871094 272.636719 C 286.644531 273.621094 286.152344 275.09375 286.152344 276.8125 C 286.152344 278.289062 286.644531 279.761719 287.628906 280.746094 C 287.628906 280.746094 287.628906 280.992188 287.871094 280.992188 C 288.855469 281.976562 290.332031 282.710938 292.050781 282.710938 C 293.769531 282.710938 295.246094 281.976562 296.226562 280.992188 C 297.210938 280.007812 297.949219 278.535156 297.949219 276.8125 C 297.949219 275.339844 297.457031 273.863281 296.472656 272.882812 C 296.472656 272.882812 296.226562 272.636719 296.226562 272.636719 Z M 296.226562 272.636719 " fill-opacity="1" fill-rule="nonzero"/><path fill="rgb(26.269531%, 56.858826%, 60.778809%)" d="M 365.777344 254.449219 C 371.917969 254.449219 377.570312 256.910156 381.503906 261.085938 C 381.75 261.332031 381.996094 261.332031 382.242188 261.578125 C 385.925781 265.753906 388.140625 270.917969 388.140625 276.8125 C 388.140625 282.957031 385.679688 288.609375 381.503906 292.542969 C 377.570312 296.71875 371.917969 299.175781 365.777344 299.175781 C 359.632812 299.175781 354.226562 296.71875 350.046875 292.542969 C 349.800781 292.296875 349.800781 292.296875 349.554688 292.050781 C 345.871094 288.117188 343.65625 282.710938 343.65625 276.8125 C 343.65625 270.671875 346.117188 265.019531 350.046875 261.085938 L 350.292969 260.839844 C 354.226562 256.910156 359.878906 254.449219 365.777344 254.449219 Z M 369.953125 272.636719 C 368.96875 271.652344 367.496094 270.917969 365.777344 270.917969 C 364.300781 270.917969 362.828125 271.652344 361.597656 272.636719 L 355.945312 266.738281 L 361.597656 272.636719 C 360.613281 273.621094 359.878906 275.09375 359.878906 276.8125 C 359.878906 278.289062 360.367188 279.761719 361.351562 280.746094 C 361.351562 280.746094 361.597656 280.992188 361.597656 280.992188 C 362.828125 281.976562 364.300781 282.710938 365.777344 282.710938 C 367.496094 282.710938 368.96875 281.976562 369.953125 280.992188 C 371.183594 280.007812 371.671875 278.535156 371.671875 276.8125 C 371.671875 275.339844 371.183594 273.863281 370.445312 272.882812 C 370.199219 272.882812 370.199219 272.636719 369.953125 272.636719 Z M 369.953125 272.636719 " fill-opacity="1" fill-rule="nonzero"/><path fill="rgb(26.269531%, 56.858826%, 60.778809%)" d="M 425.492188 268.703125 C 421.070312 268.703125 417.382812 272.390625 417.382812 276.8125 C 417.382812 281.238281 421.070312 284.925781 425.492188 284.925781 L 543.699219 284.925781 C 548.367188 284.925781 551.808594 281.238281 551.808594 276.8125 C 551.808594 272.390625 548.367188 268.703125 543.699219 268.703125 Z M 425.492188 268.703125 " fill-opacity="1" fill-rule="nonzero"/></svg>